<?xml version="1.0" encoding="UTF-8"?>
<!DOCTYPE svg PUBLIC "-//W3C//DTD SVG 1.1//EN" "http://www.w3.org/Graphics/SVG/1.1/DTD/svg11.dtd">
<svg xmlns="http://www.w3.org/2000/svg" version="1.1" width="200px" height="200px" style="shape-rendering:geometricPrecision; text-rendering:geometricPrecision; image-rendering:optimizeQuality; fill-rule:evenodd; clip-rule:evenodd" xmlns:xlink="http://www.w3.org/1999/xlink">
<g><path style="opacity:1" fill="#050816" d="M -0.5,-0.5 C 66.1667,-0.5 132.833,-0.5 199.5,-0.5C 199.5,66.1667 199.5,132.833 199.5,199.5C 132.833,199.5 66.1667,199.5 -0.5,199.5C -0.5,132.833 -0.5,66.1667 -0.5,-0.5 Z"/></g>
<g><path style="opacity:1" fill="#1299fd" d="M 70.5,8.5 C 100.762,12.3458 131.095,16.3458 161.5,20.5C 161.5,21.8333 161.5,23.1667 161.5,24.5C 122.222,19.507 82.8885,14.8403 43.5,10.5C 43.9175,9.77842 44.5842,9.27842 45.5,9C 53.8267,8.50027 62.16,8.3336 70.5,8.5 Z"/></g>
<g><path style="opacity:1" fill="#04a4fd" d="M 70.5,8.5 C 98.1687,8.33336 125.835,8.50002 153.5,9C 158.291,11.434 160.958,15.2674 161.5,20.5C 131.095,16.3458 100.762,12.3458 70.5,8.5 Z"/></g>
<g><path style="opacity:1" fill="#208dfc" d="M 43.5,10.5 C 82.8885,14.8403 122.222,19.507 161.5,24.5C 161.5,26.1667 161.5,27.8333 161.5,29.5C 157.863,28.8346 154.197,28.1679 150.5,27.5C 149.824,28.6016 149.158,29.6016 148.5,30.5C 148.737,29.209 148.404,28.209 147.5,27.5C 111.607,23.3255 75.607,18.9922 39.5,14.5C 40.5,12.8333 41.8333,11.5 43.5,10.5 Z"/></g>
<g><path style="opacity:1" fill="#2b7df1" d="M 39.5,14.5 C 75.607,18.9922 111.607,23.3255 147.5,27.5C 115.5,27.5 83.5,27.5 51.5,27.5C 66.6612,26.6686 81.9945,26.1686 97.5,26C 77.527,23.5032 57.527,21.3366 37.5,19.5C 37.3915,17.4862 38.0582,15.8195 39.5,14.5 Z"/></g>
<g><path style="opacity:1" fill="#377afb" d="M 37.5,19.5 C 57.527,21.3366 77.527,23.5032 97.5,26C 81.9945,26.1686 66.6612,26.6686 51.5,27.5C 50.596,28.209 50.2627,29.209 50.5,30.5C 49.596,29.791 49.2627,28.791 49.5,27.5C 45.5341,26.8379 41.5341,26.5045 37.5,26.5C 37.5,24.1667 37.5,21.8333 37.5,19.5 Z"/></g>
<g><path style="opacity:1" fill="#050816" d="M 51.5,27.5 C 83.5,27.5 115.5,27.5 147.5,27.5C 148.404,28.209 148.737,29.209 148.5,30.5C 116.338,31.4982 84.0043,31.8316 51.5,31.5C 50.8333,31.5 50.5,31.1667 50.5,30.5C 50.2627,29.209 50.596,28.209 51.5,27.5 Z"/></g>
<g><path style="opacity:1" fill="#4e67fa" d="M 37.5,26.5 C 41.5341,26.5045 45.5341,26.8379 49.5,27.5C 49.2627,28.791 49.596,29.791 50.5,30.5C 50.5,31.1667 50.8333,31.5 51.5,31.5C 66.3277,32.3313 81.3277,32.8313 96.5,33C 118.165,35.5833 139.832,38.0833 161.5,40.5C 161.5,42.8333 161.5,45.1667 161.5,47.5C 156.833,47.5 152.167,47.5 147.5,47.5C 148.728,45.9902 148.728,44.4902 147.5,43C 135.838,42.5001 124.171,42.3335 112.5,42.5C 87.7061,38.9431 62.7061,35.9431 37.5,33.5C 37.5,31.1667 37.5,28.8333 37.5,26.5 Z"/></g>
<g><path style="opacity:1" fill="#386be5" d="M 161.5,29.5 C 161.5,33.1667 161.5,36.8333 161.5,40.5C 139.832,38.0833 118.165,35.5833 96.5,33C 81.3277,32.8313 66.3277,32.3313 51.5,31.5C 84.0043,31.8316 116.338,31.4982 148.5,30.5C 149.158,29.6016 149.824,28.6016 150.5,27.5C 154.197,28.1679 157.863,28.8346 161.5,29.5 Z"/></g>
<g><path style="opacity:1" fill="#5e59f9" d="M 37.5,33.5 C 62.7061,35.9431 87.7061,38.9431 112.5,42.5C 92.1639,42.3334 71.8306,42.5 51.5,43C 50.7476,43.6708 50.4142,44.5041 50.5,45.5C 46.4958,43.6121 42.1624,42.6121 37.5,42.5C 37.5,39.5 37.5,36.5 37.5,33.5 Z"/></g>
<g><path style="opacity:1" fill="#0d0c1e" d="M 112.5,42.5 C 124.171,42.3335 135.838,42.5001 147.5,43C 148.728,44.4902 148.728,45.9902 147.5,47.5C 132.833,47.5 118.167,47.5 103.5,47.5C 86.1635,47.6666 68.8301,47.4999 51.5,47C 50.944,46.6174 50.6107,46.1174 50.5,45.5C 50.4142,44.5041 50.7476,43.6708 51.5,43C 71.8306,42.5 92.1639,42.3334 112.5,42.5 Z"/></g>
<g><path style="opacity:1" fill="#7447f8" d="M 37.5,42.5 C 42.1624,42.6121 46.4958,43.6121 50.5,45.5C 50.6107,46.1174 50.944,46.6174 51.5,47C 68.8301,47.4999 86.1635,47.6666 103.5,47.5C 122.625,50.4041 141.959,52.7375 161.5,54.5C 161.5,57.8333 161.5,61.1667 161.5,64.5C 156.903,63.6177 152.237,62.951 147.5,62.5C 148.728,60.9902 148.728,59.4902 147.5,58C 139.173,57.5003 130.84,57.3336 122.5,57.5C 94.3889,53.4497 66.0556,50.1164 37.5,47.5C 37.5,45.8333 37.5,44.1667 37.5,42.5 Z"/></g>
<g><path style="opacity:1" fill="#6554f9" d="M 103.5,47.5 C 118.167,47.5 132.833,47.5 147.5,47.5C 152.167,47.5 156.833,47.5 161.5,47.5C 161.5,49.8333 161.5,52.1667 161.5,54.5C 141.959,52.7375 122.625,50.4041 103.5,47.5 Z"/></g>
<g><path style="opacity:1" fill="#8337f2" d="M 37.5,47.5 C 66.0556,50.1164 94.3889,53.4497 122.5,57.5C 98.831,57.3334 75.1643,57.5 51.5,58C 50.1667,59.3333 50.1667,60.6667 51.5,62C 83.4983,62.5 115.498,62.6666 147.5,62.5C 152.237,62.951 156.903,63.6177 161.5,64.5C 161.901,72.5852 161.401,80.5852 160,88.5C 158.833,91 157,92.8333 154.5,94C 148.915,95.1856 143.249,95.8522 137.5,96C 135.789,97.1332 135.289,98.6332 136,100.5C 138.515,103.506 139.849,106.84 140,110.5C 139.196,111.804 138.029,112.471 136.5,112.5C 126.376,107.271 116.376,101.771 106.5,96C 85.7443,95.9774 65.0776,95.3107 44.5,94C 41.2553,92.0194 39.0886,89.1861 38,85.5C 37.5001,72.8377 37.3334,60.1711 37.5,47.5 Z"/></g>
<g><path style="opacity:1" fill="#0e0b1e" d="M 122.5,57.5 C 130.84,57.3336 139.173,57.5003 147.5,58C 148.728,59.4902 148.728,60.9902 147.5,62.5C 115.498,62.6666 83.4983,62.5 51.5,62C 50.1667,60.6667 50.1667,59.3333 51.5,58C 75.1643,57.5 98.831,57.3334 122.5,57.5 Z"/></g>
<g><path style="opacity:1" fill="#050816" d="M 50.5,73.5 C 83.1667,73.5 115.833,73.5 148.5,73.5C 148.5,74.8333 148.5,76.1667 148.5,77.5C 115.833,77.5 83.1667,77.5 50.5,77.5C 50.5,76.1667 50.5,74.8333 50.5,73.5 Z"/></g>
<g><path style="opacity:1" fill="#f0f1f2" d="M 85.5,99.5 C 92.175,99.3337 98.8417,99.5004 105.5,100C 107.917,101.626 110.417,103.126 113,104.5C 113.495,106.473 113.662,108.473 113.5,110.5C 117.637,110.146 121.637,110.646 125.5,112C 127.451,113.734 128.451,115.901 128.5,118.5C 109.167,118.5 89.8333,118.5 70.5,118.5C 70.5494,115.901 71.5494,113.734 73.5,112C 77.3628,110.646 81.3628,110.146 85.5,110.5C 85.5,106.833 85.5,103.167 85.5,99.5 Z"/></g>
<g><path style="opacity:1" fill="#eeeff0" d="M 95.5,129.5 C 99.0071,128.994 102.174,129.66 105,131.5C 112.939,147.044 120.605,162.711 128,178.5C 129.091,183.098 127.257,185.931 122.5,187C 120.833,187.667 119.167,187.667 117.5,187C 114.612,183.353 112.279,179.353 110.5,175C 103.167,174.333 95.8333,174.333 88.5,175C 86.9373,179.46 84.604,183.46 81.5,187C 77.4122,187.711 73.9122,186.544 71,183.5C 70.3333,181.833 70.3333,180.167 71,178.5C 79.0763,162.093 87.243,145.759 95.5,129.5 Z"/></g>
<g><path style="opacity:1" fill="#0e101b" d="M 98.5,153.5 C 99.3764,153.369 100.043,153.702 100.5,154.5C 101.706,157.079 103.039,159.579 104.5,162C 101.167,162.667 97.8333,162.667 94.5,162C 96.2465,159.341 97.5798,156.508 98.5,153.5 Z"/></g>
</svg>
